<?xml version="1.0" encoding="UTF-8"?>
<svg xmlns="http://www.w3.org/2000/svg" xmlns:xlink="http://www.w3.org/1999/xlink" width="1920" height="1080" viewBox="0 0 1920 1080">
<defs>
<g>
<g id="glyph-0-0">
<path d="M 0.484375 0 L 0.484375 -4.773438 L 2.03125 -4.773438 C 2.617188 -4.773438 3 -4.75 3.175781 -4.699219 C 3.449219 -4.628906 3.679688 -4.472656 3.863281 -4.234375 C 4.046875 -3.992188 4.140625 -3.683594 4.140625 -3.304688 C 4.140625 -3.011719 4.085938 -2.765625 3.980469 -2.566406 C 3.875 -2.367188 3.738281 -2.207031 3.574219 -2.09375 C 3.410156 -1.980469 3.246094 -1.90625 3.074219 -1.867188 C 2.847656 -1.824219 2.511719 -1.800781 2.078125 -1.800781 L 1.449219 -1.800781 L 1.449219 0 L 0.484375 0 M 1.449219 -3.964844 L 1.449219 -2.609375 L 1.976562 -2.609375 C 2.355469 -2.609375 2.609375 -2.636719 2.738281 -2.683594 C 2.867188 -2.734375 2.964844 -2.8125 3.039062 -2.917969 C 3.113281 -3.027344 3.148438 -3.148438 3.148438 -3.289062 C 3.148438 -3.464844 3.097656 -3.609375 2.996094 -3.71875 C 2.894531 -3.832031 2.761719 -3.902344 2.605469 -3.933594 C 2.492188 -3.953125 2.261719 -3.964844 1.914062 -3.964844 Z "/>
</g>
<g id="glyph-0-1">
<path d="M 0.511719 0 L 0.511719 -4.734375 L 1.472656 -4.734375 L 1.472656 -0.804688 L 3.871094 -0.804688 L 3.871094 0 Z "/>
</g>
<g id="glyph-0-2">
<path d="M 4.789062 0 L 3.738281 0 L 3.324219 -1.085938 L 1.414062 -1.085938 L 1.023438 0 L 0 0 L 1.859375 -4.773438 L 2.878906 -4.773438 L 4.789062 0 M 3.015625 -1.886719 L 2.355469 -3.660156 L 1.710938 -1.886719 Z "/>
</g>
<g id="glyph-0-3">
<path d="M 0.496094 0 L 0.496094 -4.773438 L 1.433594 -4.773438 L 3.386719 -1.585938 L 3.386719 -4.773438 L 4.28125 -4.773438 L 4.28125 0 L 3.3125 0 L 1.390625 -3.113281 L 1.390625 0 Z "/>
</g>
<g id="glyph-0-4">
<path d="M 0.484375 0 L 0.484375 -4.773438 L 4.023438 -4.773438 L 4.023438 -3.964844 L 1.449219 -3.964844 L 1.449219 -2.90625 L 3.84375 -2.90625 L 3.84375 -2.101562 L 1.449219 -2.101562 L 1.449219 -0.804688 L 4.113281 -0.804688 L 4.113281 0 Z "/>
</g>
<g id="glyph-0-5">
<path d="M 1.558594 0 L 1.558594 -3.964844 L 0.144531 -3.964844 L 0.144531 -4.773438 L 3.933594 -4.773438 L 3.933594 -3.964844 L 2.523438 -3.964844 L 2.523438 0 Z "/>
</g>
<g id="glyph-0-6">
</g>
<g id="glyph-0-7">
<path d="M 0.242188 -1.550781 L 1.179688 -1.644531 C 1.234375 -1.328125 1.347656 -1.097656 1.523438 -0.949219 C 1.695312 -0.804688 1.925781 -0.730469 2.21875 -0.730469 C 2.53125 -0.730469 2.765625 -0.792969 2.921875 -0.925781 C 3.078125 -1.058594 3.15625 -1.210938 3.15625 -1.386719 C 3.15625 -1.5 3.125 -1.59375 3.058594 -1.675781 C 2.992188 -1.753906 2.875 -1.824219 2.710938 -1.882812 C 2.597656 -1.921875 2.339844 -1.988281 1.941406 -2.089844 C 1.421875 -2.21875 1.0625 -2.375 0.851562 -2.5625 C 0.558594 -2.824219 0.414062 -3.144531 0.414062 -3.523438 C 0.414062 -3.765625 0.480469 -3.992188 0.621094 -4.203125 C 0.757812 -4.414062 0.957031 -4.578125 1.214844 -4.6875 C 1.476562 -4.796875 1.789062 -4.851562 2.15625 -4.851562 C 2.753906 -4.851562 3.203125 -4.722656 3.507812 -4.460938 C 3.808594 -4.195312 3.96875 -3.847656 3.984375 -3.40625 L 3.019531 -3.367188 C 2.980469 -3.609375 2.890625 -3.789062 2.753906 -3.894531 C 2.621094 -4.003906 2.417969 -4.054688 2.144531 -4.054688 C 1.863281 -4.054688 1.644531 -4 1.488281 -3.882812 C 1.386719 -3.808594 1.335938 -3.710938 1.335938 -3.585938 C 1.335938 -3.472656 1.382812 -3.378906 1.476562 -3.296875 C 1.597656 -3.195312 1.894531 -3.089844 2.363281 -2.976562 C 2.832031 -2.867188 3.179688 -2.753906 3.402344 -2.636719 C 3.628906 -2.515625 3.804688 -2.355469 3.929688 -2.148438 C 4.058594 -1.945312 4.121094 -1.691406 4.121094 -1.390625 C 4.121094 -1.117188 4.046875 -0.859375 3.894531 -0.621094 C 3.742188 -0.382812 3.527344 -0.207031 3.25 -0.0898438 C 2.972656 0.0273438 2.625 0.0859375 2.210938 0.0859375 C 1.605469 0.0859375 1.144531 -0.0546875 0.820312 -0.332031 C 0.496094 -0.613281 0.304688 -1.019531 0.242188 -1.550781 Z "/>
</g>
<g id="glyph-0-8">
<path d="M 0.457031 0 L 0.457031 -4.773438 L 1.417969 -4.773438 L 1.417969 0 Z "/>
</g>
<g id="glyph-0-9">
<path d="M 0.0703125 0 L 0.0703125 -0.867188 L 2.578125 -3.964844 L 0.355469 -3.964844 L 0.355469 -4.773438 L 3.847656 -4.773438 L 3.847656 -4.023438 L 1.234375 -0.804688 L 3.949219 -0.804688 L 3.949219 0 Z "/>
</g>
<g id="glyph-0-10">
<path d="M 3.539062 -1.753906 L 4.472656 -1.457031 C 4.328125 -0.9375 4.089844 -0.550781 3.757812 -0.296875 C 3.425781 -0.046875 3.003906 0.0820312 2.492188 0.0820312 C 1.855469 0.0820312 1.335938 -0.136719 0.925781 -0.566406 C 0.519531 -1 0.316406 -1.59375 0.316406 -2.34375 C 0.316406 -3.136719 0.519531 -3.753906 0.929688 -4.195312 C 1.339844 -4.632812 1.878906 -4.851562 2.546875 -4.851562 C 3.132812 -4.851562 3.605469 -4.679688 3.972656 -4.335938 C 4.1875 -4.132812 4.351562 -3.839844 4.460938 -3.457031 L 3.503906 -3.230469 C 3.449219 -3.476562 3.332031 -3.671875 3.152344 -3.816406 C 2.972656 -3.957031 2.757812 -4.03125 2.5 -4.03125 C 2.144531 -4.03125 1.859375 -3.902344 1.640625 -3.648438 C 1.417969 -3.394531 1.308594 -2.984375 1.308594 -2.414062 C 1.308594 -1.8125 1.417969 -1.382812 1.632812 -1.125 C 1.851562 -0.871094 2.132812 -0.742188 2.480469 -0.742188 C 2.738281 -0.742188 2.957031 -0.824219 3.140625 -0.984375 C 3.324219 -1.148438 3.457031 -1.40625 3.539062 -1.753906 Z "/>
</g>
<g id="glyph-0-11">
<path d="M 0.289062 -2.355469 C 0.289062 -2.84375 0.363281 -3.25 0.507812 -3.582031 C 0.617188 -3.824219 0.765625 -4.042969 0.953125 -4.234375 C 1.140625 -4.429688 1.34375 -4.570312 1.570312 -4.664062 C 1.867188 -4.789062 2.210938 -4.851562 2.597656 -4.851562 C 3.300781 -4.851562 3.863281 -4.636719 4.285156 -4.199219 C 4.707031 -3.761719 4.917969 -3.15625 4.917969 -2.378906 C 4.917969 -1.609375 4.710938 -1.007812 4.289062 -0.570312 C 3.871094 -0.136719 3.3125 0.0820312 2.609375 0.0820312 C 1.902344 0.0820312 1.335938 -0.136719 0.917969 -0.566406 C 0.5 -1 0.289062 -1.597656 0.289062 -2.355469 M 1.28125 -2.390625 C 1.28125 -1.847656 1.40625 -1.4375 1.65625 -1.160156 C 1.90625 -0.882812 2.222656 -0.742188 2.605469 -0.742188 C 2.992188 -0.742188 3.308594 -0.878906 3.554688 -1.15625 C 3.800781 -1.433594 3.921875 -1.847656 3.921875 -2.402344 C 3.921875 -2.949219 3.800781 -3.355469 3.5625 -3.625 C 3.324219 -3.894531 3.003906 -4.03125 2.605469 -4.03125 C 2.210938 -4.03125 1.890625 -3.894531 1.648438 -3.621094 C 1.402344 -3.347656 1.28125 -2.9375 1.28125 -2.390625 Z "/>
</g>
<g id="glyph-0-12">
<path d="M 0.472656 0 L 0.472656 -4.773438 L 1.914062 -4.773438 L 2.78125 -1.515625 L 3.636719 -4.773438 L 5.082031 -4.773438 L 5.082031 0 L 4.1875 0 L 4.1875 -3.757812 L 3.238281 0 L 2.3125 0 L 1.367188 -3.757812 L 1.367188 0 Z "/>
</g>
<g id="glyph-0-13">
<path d="M 0.488281 0 L 0.488281 -4.773438 L 2.515625 -4.773438 C 3.027344 -4.773438 3.398438 -4.730469 3.628906 -4.644531 C 3.859375 -4.558594 4.042969 -4.40625 4.183594 -4.1875 C 4.320312 -3.96875 4.390625 -3.714844 4.390625 -3.433594 C 4.390625 -3.074219 4.285156 -2.78125 4.074219 -2.546875 C 3.863281 -2.3125 3.550781 -2.167969 3.132812 -2.105469 C 3.339844 -1.984375 3.511719 -1.851562 3.648438 -1.707031 C 3.78125 -1.558594 3.964844 -1.300781 4.195312 -0.929688 L 4.777344 0 L 3.625 0 L 2.929688 -1.039062 C 2.683594 -1.410156 2.511719 -1.644531 2.421875 -1.738281 C 2.332031 -1.835938 2.234375 -1.902344 2.132812 -1.9375 C 2.03125 -1.972656 1.867188 -1.992188 1.648438 -1.992188 L 1.453125 -1.992188 L 1.453125 0 L 0.488281 0 M 1.453125 -2.753906 L 2.164062 -2.753906 C 2.625 -2.753906 2.914062 -2.773438 3.03125 -2.8125 C 3.144531 -2.851562 3.234375 -2.917969 3.300781 -3.015625 C 3.367188 -3.109375 3.398438 -3.230469 3.398438 -3.371094 C 3.398438 -3.53125 3.355469 -3.664062 3.269531 -3.761719 C 3.183594 -3.859375 3.0625 -3.921875 2.90625 -3.949219 C 2.828125 -3.960938 2.59375 -3.964844 2.203125 -3.964844 L 1.453125 -3.964844 Z "/>
</g>
</g>
</defs>
<g fill="rgb(21.568627%, 27.843137%, 30.980392%)" fill-opacity="1">
<use xlink:href="#glyph-0-0" x="30" y="26.03418"/>
<use xlink:href="#glyph-0-1" x="34" y="26.03418"/>
<use xlink:href="#glyph-0-2" x="38" y="26.03418"/>
<use xlink:href="#glyph-0-3" x="43" y="26.03418"/>
<use xlink:href="#glyph-0-4" x="48" y="26.03418"/>
<use xlink:href="#glyph-0-5" x="52" y="26.03418"/>
<use xlink:href="#glyph-0-6" x="56" y="26.03418"/>
<use xlink:href="#glyph-0-7" x="58" y="26.03418"/>
<use xlink:href="#glyph-0-8" x="62" y="26.03418"/>
<use xlink:href="#glyph-0-9" x="64" y="26.03418"/>
<use xlink:href="#glyph-0-4" x="68" y="26.03418"/>
<use xlink:href="#glyph-0-6" x="72" y="26.03418"/>
<use xlink:href="#glyph-0-10" x="74" y="26.03418"/>
<use xlink:href="#glyph-0-11" x="79" y="26.03418"/>
<use xlink:href="#glyph-0-12" x="84" y="26.03418"/>
<use xlink:href="#glyph-0-0" x="90" y="26.03418"/>
<use xlink:href="#glyph-0-2" x="94" y="26.03418"/>
<use xlink:href="#glyph-0-13" x="99" y="26.03418"/>
<use xlink:href="#glyph-0-8" x="104" y="26.03418"/>
<use xlink:href="#glyph-0-7" x="106" y="26.03418"/>
<use xlink:href="#glyph-0-11" x="110" y="26.03418"/>
<use xlink:href="#glyph-0-3" x="115" y="26.03418"/>
</g>
</svg>
