<?xml version="1.0" encoding="UTF-8"?>
<svg xmlns="http://www.w3.org/2000/svg" xmlns:xlink="http://www.w3.org/1999/xlink" width="1920" height="1080" viewBox="0 0 1920 1080">
<defs>
<g>
<g id="glyph-0-0">
<path d="M 0.125 -0.574219 L 0.410156 -0.597656 C 0.429688 -0.460938 0.476562 -0.355469 0.554688 -0.289062 C 0.628906 -0.21875 0.722656 -0.183594 0.828125 -0.183594 C 0.957031 -0.183594 1.070312 -0.230469 1.15625 -0.328125 C 1.246094 -0.425781 1.292969 -0.554688 1.292969 -0.71875 C 1.292969 -0.871094 1.25 -0.992188 1.164062 -1.082031 C 1.078125 -1.167969 0.964844 -1.214844 0.824219 -1.214844 C 0.738281 -1.214844 0.660156 -1.195312 0.589844 -1.152344 C 0.519531 -1.113281 0.464844 -1.0625 0.425781 -1 L 0.175781 -1.035156 L 0.386719 -2.15625 L 1.472656 -2.15625 L 1.472656 -1.902344 L 0.601562 -1.902344 L 0.484375 -1.3125 C 0.613281 -1.40625 0.753906 -1.449219 0.898438 -1.449219 C 1.085938 -1.449219 1.25 -1.382812 1.378906 -1.25 C 1.511719 -1.121094 1.578125 -0.949219 1.578125 -0.742188 C 1.578125 -0.542969 1.519531 -0.371094 1.402344 -0.226562 C 1.265625 -0.0507812 1.074219 0.0390625 0.828125 0.0390625 C 0.628906 0.0390625 0.46875 -0.0195312 0.34375 -0.128906 C 0.214844 -0.242188 0.144531 -0.390625 0.125 -0.574219 Z "/>
</g>
<g id="glyph-0-1">
<path d="M 1.539062 -0.257812 L 1.539062 0 L 0.09375 0 C 0.0898438 -0.0664062 0.101562 -0.125 0.125 -0.1875 C 0.160156 -0.285156 0.21875 -0.382812 0.300781 -0.476562 C 0.382812 -0.574219 0.5 -0.683594 0.652344 -0.808594 C 0.890625 -1.003906 1.050781 -1.15625 1.132812 -1.273438 C 1.21875 -1.386719 1.257812 -1.492188 1.257812 -1.59375 C 1.257812 -1.703125 1.222656 -1.792969 1.144531 -1.863281 C 1.070312 -1.9375 0.96875 -1.972656 0.847656 -1.972656 C 0.71875 -1.972656 0.613281 -1.933594 0.539062 -1.859375 C 0.460938 -1.78125 0.421875 -1.671875 0.417969 -1.535156 L 0.144531 -1.5625 C 0.164062 -1.769531 0.234375 -1.925781 0.355469 -2.035156 C 0.480469 -2.140625 0.644531 -2.195312 0.855469 -2.195312 C 1.0625 -2.195312 1.230469 -2.136719 1.351562 -2.023438 C 1.472656 -1.90625 1.535156 -1.761719 1.535156 -1.589844 C 1.535156 -1.5 1.515625 -1.414062 1.480469 -1.332031 C 1.445312 -1.246094 1.386719 -1.15625 1.304688 -1.0625 C 1.21875 -0.96875 1.082031 -0.84375 0.890625 -0.679688 C 0.726562 -0.542969 0.625 -0.453125 0.578125 -0.402344 C 0.535156 -0.355469 0.496094 -0.308594 0.464844 -0.257812 Z "/>
</g>
<g id="glyph-0-2">
<path d="M 0.144531 -1.902344 L 0.144531 -2.160156 L 1.5625 -2.160156 L 1.5625 -1.949219 C 1.421875 -1.800781 1.285156 -1.605469 1.148438 -1.359375 C 1.011719 -1.113281 0.902344 -0.859375 0.828125 -0.601562 C 0.777344 -0.417969 0.742188 -0.21875 0.726562 0 L 0.449219 0 C 0.453125 -0.171875 0.488281 -0.378906 0.550781 -0.625 C 0.617188 -0.867188 0.710938 -1.101562 0.832031 -1.328125 C 0.953125 -1.554688 1.078125 -1.746094 1.214844 -1.902344 Z "/>
</g>
<g id="glyph-0-3">
</g>
<g id="glyph-0-4">
<path d="M 0.222656 0 L 0.222656 -2.1875 L 0.511719 -2.1875 L 0.511719 -1.101562 L 1.601562 -2.1875 L 1.992188 -2.1875 L 1.074219 -1.300781 L 2.03125 0 L 1.648438 0 L 0.871094 -1.105469 L 0.511719 -0.757812 L 0.511719 0 Z "/>
</g>
</g>
</defs>
<g fill="rgb(50.980392%, 69.411765%, 100%)" fill-opacity="1">
<use xlink:href="#glyph-0-0" x="30" y="22.766602"/>
<use xlink:href="#glyph-0-1" x="32" y="22.766602"/>
<use xlink:href="#glyph-0-2" x="34" y="22.766602"/>
<use xlink:href="#glyph-0-3" x="36" y="22.766602"/>
<use xlink:href="#glyph-0-4" x="37" y="22.766602"/>
</g>
</svg>
