<?xml version="1.0" encoding="UTF-8"?>
<svg xmlns="http://www.w3.org/2000/svg" xmlns:xlink="http://www.w3.org/1999/xlink" width="1920" height="1080" viewBox="0 0 1920 1080">
<defs>
<g>
<g id="glyph-0-0">
<path d="M 6.707031 -17.570312 C 8.402344 -17.570312 9.726562 -16.964844 10.683594 -15.753906 C 11.820312 -14.324219 12.390625 -11.949219 12.390625 -8.628906 C 12.390625 -5.320312 11.816406 -2.941406 10.671875 -1.492188 C 9.722656 -0.296875 8.402344 0.296875 6.707031 0.296875 C 5.003906 0.296875 3.632812 -0.355469 2.589844 -1.664062 C 1.546875 -2.972656 1.027344 -5.308594 1.027344 -8.664062 C 1.027344 -11.960938 1.597656 -14.332031 2.746094 -15.777344 C 3.691406 -16.972656 5.011719 -17.570312 6.707031 -17.570312 M 6.707031 -14.789062 C 6.300781 -14.789062 5.941406 -14.660156 5.621094 -14.398438 C 5.304688 -14.140625 5.058594 -13.679688 4.882812 -13.007812 C 4.652344 -12.140625 4.535156 -10.683594 4.535156 -8.628906 C 4.535156 -6.578125 4.640625 -5.167969 4.847656 -4.398438 C 5.050781 -3.628906 5.3125 -3.121094 5.628906 -2.863281 C 5.941406 -2.609375 6.300781 -2.484375 6.707031 -2.484375 C 7.113281 -2.484375 7.476562 -2.613281 7.792969 -2.871094 C 8.113281 -3.128906 8.359375 -3.59375 8.535156 -4.261719 C 8.765625 -5.121094 8.878906 -6.578125 8.878906 -8.628906 C 8.878906 -10.683594 8.777344 -12.09375 8.570312 -12.859375 C 8.363281 -13.628906 8.101562 -14.140625 7.789062 -14.398438 C 7.472656 -14.660156 7.113281 -14.789062 6.707031 -14.789062 Z "/>
</g>
<g id="glyph-0-1">
<path d="M 1.753906 0 L 1.753906 -3.355469 L 5.109375 -3.355469 L 5.109375 0 Z "/>
</g>
<g id="glyph-0-2">
<path d="M 12.363281 -3.113281 L 12.363281 0 L 0.609375 0 C 0.734375 -1.175781 1.117188 -2.292969 1.753906 -3.347656 C 2.390625 -4.402344 3.648438 -5.800781 5.527344 -7.542969 C 7.039062 -8.953125 7.964844 -9.90625 8.308594 -10.40625 C 8.769531 -11.101562 9 -11.785156 9 -12.460938 C 9 -13.207031 8.796875 -13.785156 8.398438 -14.183594 C 7.996094 -14.585938 7.441406 -14.789062 6.730469 -14.789062 C 6.03125 -14.789062 5.472656 -14.578125 5.0625 -14.15625 C 4.648438 -13.734375 4.40625 -13.035156 4.34375 -12.054688 L 1.003906 -12.390625 C 1.203125 -14.234375 1.824219 -15.558594 2.875 -16.363281 C 3.925781 -17.167969 5.238281 -17.570312 6.816406 -17.570312 C 8.542969 -17.570312 9.898438 -17.105469 10.886719 -16.171875 C 11.871094 -15.242188 12.363281 -14.082031 12.363281 -12.699219 C 12.363281 -11.910156 12.222656 -11.160156 11.941406 -10.449219 C 11.660156 -9.738281 11.210938 -8.992188 10.597656 -8.210938 C 10.191406 -7.695312 9.460938 -6.949219 8.402344 -5.980469 C 7.34375 -5.007812 6.675781 -4.363281 6.390625 -4.046875 C 6.109375 -3.726562 5.878906 -3.417969 5.707031 -3.113281 Z "/>
</g>
</g>
</defs>
<g fill="rgb(90.980392%, 91.764706%, 96.470588%)" fill-opacity="1">
<use xlink:href="#glyph-0-0" x="30" y="42.12793"/>
<use xlink:href="#glyph-0-1" x="44" y="42.12793"/>
<use xlink:href="#glyph-0-0" x="51" y="42.12793"/>
<use xlink:href="#glyph-0-2" x="65" y="42.12793"/>
<use xlink:href="#glyph-0-2" x="79" y="42.12793"/>
</g>
</svg>
