<?xml version="1.0" encoding="UTF-8"?>
<svg xmlns="http://www.w3.org/2000/svg" xmlns:xlink="http://www.w3.org/1999/xlink" width="1920" height="1080" viewBox="0 0 1920 1080">
<defs>
<g>
<g id="glyph-0-0">
<path d="M 9.953125 -10.8125 L 8.203125 -10.671875 C 8.046875 -11.363281 7.824219 -11.867188 7.539062 -12.179688 C 7.0625 -12.679688 6.476562 -12.929688 5.78125 -12.929688 C 5.222656 -12.929688 4.730469 -12.773438 4.304688 -12.460938 C 3.753906 -12.058594 3.316406 -11.46875 3 -10.695312 C 2.679688 -9.917969 2.511719 -8.816406 2.5 -7.382812 C 2.921875 -8.027344 3.441406 -8.503906 4.054688 -8.820312 C 4.664062 -9.128906 5.304688 -9.285156 5.976562 -9.289062 C 7.148438 -9.285156 8.144531 -8.855469 8.96875 -7.992188 C 9.792969 -7.128906 10.203125 -6.015625 10.203125 -4.648438 C 10.203125 -3.75 10.011719 -2.914062 9.625 -2.144531 C 9.238281 -1.371094 8.703125 -0.78125 8.027344 -0.371094 C 7.351562 0.0390625 6.582031 0.242188 5.722656 0.242188 C 4.257812 0.242188 3.0625 -0.292969 2.140625 -1.371094 C 1.214844 -2.449219 0.75 -4.226562 0.75 -6.699219 C 0.75 -9.464844 1.261719 -11.476562 2.285156 -12.734375 C 3.175781 -13.828125 4.378906 -14.375 5.890625 -14.375 C 7.015625 -14.375 7.9375 -14.058594 8.65625 -13.429688 C 9.375 -12.796875 9.808594 -11.921875 9.953125 -10.8125 M 2.773438 -4.640625 C 2.773438 -4.03125 2.902344 -3.453125 3.160156 -2.898438 C 3.417969 -2.347656 3.777344 -1.925781 4.238281 -1.636719 C 4.699219 -1.347656 5.1875 -1.199219 5.695312 -1.203125 C 6.4375 -1.199219 7.074219 -1.5 7.609375 -2.101562 C 8.140625 -2.699219 8.40625 -3.511719 8.40625 -4.539062 C 8.40625 -5.53125 8.144531 -6.308594 7.617188 -6.878906 C 7.089844 -7.449219 6.425781 -7.734375 5.625 -7.734375 C 4.832031 -7.734375 4.15625 -7.449219 3.601562 -6.878906 C 3.050781 -6.308594 2.773438 -5.5625 2.773438 -4.640625 Z "/>
</g>
<g id="glyph-0-1">
<path d="M 1.816406 0 L 1.816406 -2 L 3.820312 -2 L 3.820312 0 Z "/>
</g>
<g id="glyph-0-2">
<path d="M 7.453125 0 L 5.695312 0 L 5.695312 -11.203125 C 5.269531 -10.796875 4.714844 -10.394531 4.027344 -9.992188 C 3.339844 -9.585938 2.726562 -9.285156 2.179688 -9.082031 L 2.179688 -10.78125 C 3.160156 -11.242188 4.019531 -11.804688 4.757812 -12.460938 C 5.492188 -13.117188 6.011719 -13.757812 6.320312 -14.375 L 7.453125 -14.375 Z "/>
</g>
<g id="glyph-0-3">
<path d="M 1.164062 -10.878906 C 1.164062 -11.902344 1.417969 -12.769531 1.933594 -13.484375 C 2.449219 -14.203125 3.195312 -14.5625 4.171875 -14.5625 C 5.070312 -14.5625 5.8125 -14.238281 6.402344 -13.597656 C 6.992188 -12.957031 7.285156 -12.015625 7.285156 -10.773438 C 7.285156 -9.5625 6.988281 -8.628906 6.390625 -7.972656 C 5.796875 -7.320312 5.0625 -6.992188 4.1875 -6.992188 C 3.324219 -6.992188 2.601562 -7.3125 2.027344 -7.960938 C 1.449219 -8.601562 1.164062 -9.578125 1.164062 -10.878906 M 4.21875 -13.351562 C 3.78125 -13.351562 3.417969 -13.160156 3.128906 -12.78125 C 2.839844 -12.40625 2.695312 -11.710938 2.695312 -10.703125 C 2.695312 -9.785156 2.84375 -9.140625 3.132812 -8.765625 C 3.429688 -8.390625 3.789062 -8.203125 4.21875 -8.203125 C 4.660156 -8.203125 5.027344 -8.390625 5.316406 -8.769531 C 5.605469 -9.148438 5.75 -9.835938 5.75 -10.839844 C 5.75 -11.765625 5.605469 -12.414062 5.3125 -12.789062 C 5.019531 -13.164062 4.65625 -13.351562 4.21875 -13.351562 M 4.226562 0.527344 L 12.0625 -14.5625 L 13.484375 -14.5625 L 5.683594 0.527344 L 4.226562 0.527344 M 10.421875 -3.359375 C 10.421875 -4.386719 10.675781 -5.257812 11.191406 -5.972656 C 11.707031 -6.683594 12.453125 -7.039062 13.4375 -7.039062 C 14.335938 -7.039062 15.078125 -6.71875 15.667969 -6.078125 C 16.257812 -5.4375 16.550781 -4.496094 16.554688 -3.25 C 16.550781 -2.039062 16.253906 -1.109375 15.660156 -0.453125 C 15.0625 0.199219 14.328125 0.527344 13.445312 0.527344 C 12.582031 0.527344 11.859375 0.203125 11.285156 -0.445312 C 10.707031 -1.09375 10.421875 -2.0625 10.421875 -3.359375 M 13.484375 -5.828125 C 13.042969 -5.828125 12.675781 -5.640625 12.386719 -5.265625 C 12.097656 -4.886719 11.953125 -4.191406 11.953125 -3.183594 C 11.953125 -2.273438 12.101562 -1.628906 12.390625 -1.25 C 12.6875 -0.871094 13.046875 -0.683594 13.476562 -0.683594 C 13.925781 -0.683594 14.296875 -0.871094 14.585938 -1.25 C 14.875 -1.628906 15.019531 -2.316406 15.019531 -3.320312 C 15.019531 -4.246094 14.875 -4.894531 14.578125 -5.269531 C 14.289062 -5.644531 13.921875 -5.828125 13.484375 -5.828125 Z "/>
</g>
</g>
</defs>
<g fill="rgb(90.980392%, 91.764706%, 96.470588%)" fill-opacity="1">
<use xlink:href="#glyph-0-0" x="30" y="38.105469"/>
<use xlink:href="#glyph-0-1" x="41" y="38.105469"/>
<use xlink:href="#glyph-0-2" x="47" y="38.105469"/>
<use xlink:href="#glyph-0-3" x="58" y="38.105469"/>
</g>
</svg>
