<?xml version="1.0" encoding="UTF-8"?>
<svg xmlns="http://www.w3.org/2000/svg" xmlns:xlink="http://www.w3.org/1999/xlink" width="1920" height="1080" viewBox="0 0 1920 1080">
<defs>
<g>
<g id="glyph-0-0">
<path d="M 5.027344 0 L 5.027344 -2.667969 L 0.199219 -2.667969 L 0.199219 -3.917969 L 5.277344 -11.136719 L 6.394531 -11.136719 L 6.394531 -3.917969 L 7.898438 -3.917969 L 7.898438 -2.667969 L 6.394531 -2.667969 L 6.394531 0 L 5.027344 0 M 5.027344 -3.917969 L 5.027344 -8.941406 L 1.542969 -3.917969 Z "/>
</g>
<g id="glyph-0-1">
</g>
<g id="glyph-0-2">
<path d="M 7.832031 -1.3125 L 7.832031 0 L 0.472656 0 C 0.460938 -0.328125 0.515625 -0.644531 0.628906 -0.949219 C 0.816406 -1.449219 1.117188 -1.945312 1.53125 -2.429688 C 1.941406 -2.917969 2.539062 -3.480469 3.320312 -4.117188 C 4.53125 -5.109375 5.347656 -5.894531 5.773438 -6.476562 C 6.199219 -7.054688 6.410156 -7.601562 6.410156 -8.121094 C 6.410156 -8.660156 6.21875 -9.117188 5.828125 -9.492188 C 5.441406 -9.863281 4.9375 -10.050781 4.3125 -10.050781 C 3.65625 -10.050781 3.128906 -9.851562 2.734375 -9.457031 C 2.339844 -9.0625 2.140625 -8.515625 2.132812 -7.816406 L 0.730469 -7.960938 C 0.824219 -9.007812 1.1875 -9.808594 1.816406 -10.355469 C 2.441406 -10.90625 3.285156 -11.179688 4.34375 -11.179688 C 5.414062 -11.179688 6.257812 -10.882812 6.882812 -10.292969 C 7.503906 -9.699219 7.816406 -8.964844 7.816406 -8.089844 C 7.816406 -7.644531 7.726562 -7.207031 7.542969 -6.773438 C 7.359375 -6.34375 7.058594 -5.890625 6.636719 -5.414062 C 6.210938 -4.941406 5.507812 -4.285156 4.527344 -3.457031 C 3.707031 -2.765625 3.179688 -2.300781 2.945312 -2.054688 C 2.714844 -1.808594 2.523438 -1.5625 2.371094 -1.3125 Z "/>
</g>
<g id="glyph-0-3">
<path d="M 0.644531 -5.492188 C 0.644531 -6.808594 0.78125 -7.867188 1.050781 -8.671875 C 1.324219 -9.472656 1.726562 -10.09375 2.257812 -10.527344 C 2.792969 -10.964844 3.464844 -11.179688 4.277344 -11.179688 C 4.875 -11.179688 5.398438 -11.0625 5.847656 -10.820312 C 6.300781 -10.578125 6.671875 -10.234375 6.964844 -9.78125 C 7.257812 -9.328125 7.488281 -8.773438 7.65625 -8.125 C 7.824219 -7.472656 7.90625 -6.59375 7.90625 -5.492188 C 7.90625 -4.183594 7.773438 -3.128906 7.503906 -2.328125 C 7.234375 -1.527344 6.835938 -0.90625 6.300781 -0.46875 C 5.765625 -0.0273438 5.089844 0.191406 4.277344 0.191406 C 3.203125 0.191406 2.359375 -0.195312 1.746094 -0.964844 C 1.011719 -1.890625 0.644531 -3.398438 0.644531 -5.492188 M 2.050781 -5.492188 C 2.050781 -3.664062 2.265625 -2.445312 2.691406 -1.84375 C 3.121094 -1.238281 3.648438 -0.933594 4.277344 -0.933594 C 4.902344 -0.933594 5.433594 -1.238281 5.859375 -1.847656 C 6.289062 -2.453125 6.5 -3.667969 6.5 -5.492188 C 6.5 -7.324219 6.289062 -8.542969 5.859375 -9.144531 C 5.433594 -9.746094 4.898438 -10.050781 4.261719 -10.050781 C 3.632812 -10.050781 3.132812 -9.785156 2.757812 -9.25 C 2.285156 -8.574219 2.050781 -7.320312 2.050781 -5.492188 Z "/>
</g>
</g>
</defs>
<g fill="rgb(100%, 83.529412%, 30.980392%)" fill-opacity="1">
<use xlink:href="#glyph-0-0" x="30" y="34.082031"/>
<use xlink:href="#glyph-0-1" x="39" y="34.082031"/>
<use xlink:href="#glyph-0-2" x="43" y="34.082031"/>
<use xlink:href="#glyph-0-0" x="52" y="34.082031"/>
<use xlink:href="#glyph-0-3" x="61" y="34.082031"/>
<use xlink:href="#glyph-0-1" x="70" y="34.082031"/>
<use xlink:href="#glyph-0-3" x="74" y="34.082031"/>
<use xlink:href="#glyph-0-3" x="83" y="34.082031"/>
<use xlink:href="#glyph-0-3" x="92" y="34.082031"/>
<use xlink:href="#glyph-0-1" x="101" y="34.082031"/>
<use xlink:href="#glyph-0-3" x="105" y="34.082031"/>
<use xlink:href="#glyph-0-3" x="114" y="34.082031"/>
<use xlink:href="#glyph-0-3" x="123" y="34.082031"/>
<use xlink:href="#glyph-0-1" x="132" y="34.082031"/>
<use xlink:href="#glyph-0-3" x="136" y="34.082031"/>
<use xlink:href="#glyph-0-3" x="145" y="34.082031"/>
<use xlink:href="#glyph-0-3" x="154" y="34.082031"/>
</g>
</svg>
