<?xml version="1.0" encoding="UTF-8"?>
<svg xmlns="http://www.w3.org/2000/svg" xmlns:xlink="http://www.w3.org/1999/xlink" width="1920" height="1080" viewBox="0 0 1920 1080">
<defs>
<g>
<g id="glyph-0-0">
<path d="M 9.621094 0 L 6.265625 0 L 6.265625 -12.640625 C 5.039062 -11.492188 3.597656 -10.648438 1.933594 -10.097656 L 1.933594 -13.140625 C 2.808594 -13.425781 3.757812 -13.96875 4.785156 -14.769531 C 5.8125 -15.570312 6.515625 -16.503906 6.898438 -17.570312 L 9.621094 -17.570312 Z "/>
</g>
<g id="glyph-0-1">
<path d="M 1.753906 0 L 1.753906 -3.355469 L 5.109375 -3.355469 L 5.109375 0 Z "/>
</g>
<g id="glyph-0-2">
<path d="M 6.707031 -17.570312 C 8.402344 -17.570312 9.726562 -16.964844 10.683594 -15.753906 C 11.820312 -14.324219 12.390625 -11.949219 12.390625 -8.628906 C 12.390625 -5.320312 11.816406 -2.941406 10.671875 -1.492188 C 9.722656 -0.296875 8.402344 0.296875 6.707031 0.296875 C 5.003906 0.296875 3.632812 -0.355469 2.589844 -1.664062 C 1.546875 -2.972656 1.027344 -5.308594 1.027344 -8.664062 C 1.027344 -11.960938 1.597656 -14.332031 2.746094 -15.777344 C 3.691406 -16.972656 5.011719 -17.570312 6.707031 -17.570312 M 6.707031 -14.789062 C 6.300781 -14.789062 5.941406 -14.660156 5.621094 -14.398438 C 5.304688 -14.140625 5.058594 -13.679688 4.882812 -13.007812 C 4.652344 -12.140625 4.535156 -10.683594 4.535156 -8.628906 C 4.535156 -6.578125 4.640625 -5.167969 4.847656 -4.398438 C 5.050781 -3.628906 5.3125 -3.121094 5.628906 -2.863281 C 5.941406 -2.609375 6.300781 -2.484375 6.707031 -2.484375 C 7.113281 -2.484375 7.476562 -2.613281 7.792969 -2.871094 C 8.113281 -3.128906 8.359375 -3.59375 8.535156 -4.261719 C 8.765625 -5.121094 8.878906 -6.578125 8.878906 -8.628906 C 8.878906 -10.683594 8.777344 -12.09375 8.570312 -12.859375 C 8.363281 -13.628906 8.101562 -14.140625 7.789062 -14.398438 C 7.472656 -14.660156 7.113281 -14.789062 6.707031 -14.789062 Z "/>
</g>
</g>
</defs>
<g fill="rgb(90.980392%, 91.764706%, 96.470588%)" fill-opacity="1">
<use xlink:href="#glyph-0-0" x="30" y="42.12793"/>
<use xlink:href="#glyph-0-1" x="44" y="42.12793"/>
<use xlink:href="#glyph-0-2" x="51" y="42.12793"/>
<use xlink:href="#glyph-0-0" x="65" y="42.12793"/>
<use xlink:href="#glyph-0-2" x="79" y="42.12793"/>
</g>
</svg>
